<svg id="Capa_1" data-name="Capa 1" xmlns="http://www.w3.org/2000/svg" viewBox="0 0 149.62 44.11"><defs><style>.cls-1{fill:#fff}</style></defs><path class="cls-1" d="M25.65 40.09H5.57A5.24 5.24 0 0 1 0 35.2a4 4 0 0 1 0-.69V5.65A5.28 5.28 0 0 1 4.92 0a4.33 4.33 0 0 1 .72 0h40.15a5.31 5.31 0 0 1 5.64 5v29.43c0 3.48-2.2 5.66-5.71 5.66Zm-10-21.17c-1.79 2.17-3.56 4.29-5.29 6.43a1.91 1.91 0 0 0 .06 2.71l.12.11a1.85 1.85 0 0 0 2.6-.16l.12-.15c2.14-2.53 4.25-5.08 6.36-7.62a1.77 1.77 0 0 0 .08-2.44q-3.25-4-6.59-8a1.71 1.71 0 0 0-2.33-.32 1.78 1.78 0 0 0-.88 2.1 3 3 0 0 0 .67 1.12c1.65 2.07 3.34 4.09 5.1 6.19ZM27.8 33.14h6.14c1.35 0 2.16-.67 2.16-1.76s-.78-1.74-2.08-1.75H21.63a1.86 1.86 0 0 0-2.08 1.61v.15a1.88 1.88 0 0 0 2.12 1.74ZM125.61 40.09h-2.87v-9.71c1.7-.39 2.26-.24 2.57.53a10.37 10.37 0 0 1 2.78-.78 10.32 10.32 0 0 1 2.72.83 13.51 13.51 0 0 1 2.49-.84 3 3 0 0 1 3.51 2.39 3.08 3.08 0 0 1 .05.61c.12 2.27 0 4.55 0 6.89H134v-5.82c0-1.26-.6-1.76-1.7-1.54a1.09 1.09 0 0 0-1 1.16s0 .06 0 .09V40h-2.87v-6.24a1.05 1.05 0 0 0-1.25-1.15c-.79.07-1.51.29-1.51 1.3ZM94.6 41.69c1.24.1 2.32.27 3.4.26 1.83 0 2.47-.78 2.37-2.54a13.23 13.23 0 0 1-2.62.73 3.41 3.41 0 0 1-3.61-3 10.4 10.4 0 0 1 0-3.34 3.84 3.84 0 0 1 3.48-3.51 35.6 35.6 0 0 1 5.06.11c.58 0 .72.36.71.89v8.5a4.05 4.05 0 0 1-3.79 4.31h-.21a35.45 35.45 0 0 1-3.62-.1c-.93 0-1.26-.46-1.13-1.35a6.69 6.69 0 0 0-.04-.96Zm5.8-6.87V33a.84.84 0 0 0-.37-.61 2.41 2.41 0 0 0-2.73.88 4 4 0 0 0-.08 3.64c.42.88 1.27 1 2.2.82s1.07-.78 1-1.57c-.06-.44 0-.88-.06-1.33ZM85.58 24.09c1.28.09 2.43.25 3.58.23 1.69 0 2.37-.92 2.14-2.65a9.71 9.71 0 0 1-1.63.77 3.5 3.5 0 0 1-4.38-2.31 2 2 0 0 1-.09-.35 10.16 10.16 0 0 1 0-4.11c.52-2.25 2.39-3.06 4.49-3.16a31.2 31.2 0 0 1 3.86.3c.55 0 .73.32.72.87v8.49a4 4 0 0 1-3.66 4.31h-.1a27.77 27.77 0 0 1-3.87 0c-.86 0-1.21-.44-1.08-1.3a5.78 5.78 0 0 0 .02-1.09Zm5.78-6.74v-1.94a.82.82 0 0 0-.36-.62c-1-.44-2.66.19-2.88 1.22a8.45 8.45 0 0 0 0 3.09c.16.88 1.16 1.23 2.16 1.06s1.23-.7 1.12-1.59a10 10 0 0 1-.04-1.22ZM76.81 22.38c-.17.09-.2.11-.23.11-2.62.19-2.67.21-3.37-2.29-.26-1-.65-1.35-1.67-1.25s-2 0-3 .05c-.3 0-.61.36-.84.62s-.15.44-.22.67c-.77 2.45-.77 2.45-3.58 2.15.47-1.47.94-2.91 1.4-4.35.87-2.69 1.76-5.38 2.59-8.08.19-.61.44-.89 1.13-.85 1.12.06 2.25 0 3.48 0Zm-8.14-5.85H72l-1.58-5.14h-.19ZM64.88 44V30.35c2-.33 2.36-.22 2.72.81a3.51 3.51 0 0 1 3.67-.91 4.27 4.27 0 0 1 2.09 1.35 6.16 6.16 0 0 1 .35 6.23c-.86 1.93-2.66 2.4-4.59 2.47h-1.26V44Zm3-6.07c1.27.17 2.36.24 3.09-.85a4.3 4.3 0 0 0 0-3.92 1.76 1.76 0 0 0-2.11-.58c-.37.12-.87.57-.89.89a32.82 32.82 0 0 0-.14 4.53ZM109.49 22.47h-2.88v-9.89c.89.41 2.07-.62 2.61.84a14 14 0 0 1 2-.81c2.28-.56 4 .54 4.22 2.86s0 4.61 0 7h-2.85v-5.83c0-1.21-.49-1.66-1.49-1.61-1.16 0-1.64.55-1.64 1.71ZM133.43 22.47h-2.82v-9.66c1.56-.43 2.22-.26 2.54.74a4.6 4.6 0 0 1 3.82-1 2.66 2.66 0 0 1 2.39 2.54c.12 2.44 0 4.89 0 7.4h-2.82v-5.82c0-1.38-.74-1.9-2.06-1.51a1.27 1.27 0 0 0-1.06 1.39c.05 1.94.01 3.91.01 5.92ZM92.48 35.21c0 4-3 6-6.72 4.82a4 4 0 0 1-.57-.23c-1.77-.86-2.65-3-2.33-5.56.29-2.28 1.41-3.59 3.45-4 3.75-.8 6.18 1.17 6.17 4.97Zm-6.75 0a14.33 14.33 0 0 0 .27 1.72 1.55 1.55 0 0 0 1.68 1.16 1.46 1.46 0 0 0 1.66-1.22.13.13 0 0 0 0-.06 13 13 0 0 0 0-3.3 1.47 1.47 0 0 0-1.66-1.19 1.53 1.53 0 0 0-1.6 1.15 14.16 14.16 0 0 0-.37 1.69ZM144.1 34.09c0-1.17-.35-1.68-1.56-1.7-1 0-2.09.12-3.2.2v-2a9.89 9.89 0 0 1 5.5-.13 2.59 2.59 0 0 1 2.06 2.4c.12 2.41 0 4.82 0 7.37-.84-.41-2 .66-2.58-.9a3.78 3.78 0 0 1-3.78.88 2.58 2.58 0 0 1-2-2.48 2.49 2.49 0 0 1 1.69-2.83 32.84 32.84 0 0 1 3.87-.81Zm0 1.79a5.37 5.37 0 0 0-1.69.21 1.61 1.61 0 0 0-.84 1.17 1.48 1.48 0 0 0 1 1c1.24 0 2-.29 1.53-2.42ZM120.54 40.2c-1-.45-2.16.68-2.64-1a3.75 3.75 0 0 1-3.65 1 2.61 2.61 0 0 1-2.2-2.58 2.52 2.52 0 0 1 1.85-2.83c1.2-.35 2.46-.48 3.7-.71.1-1.15-.3-1.68-1.52-1.71-1 0-2.09.11-3.19.18v-2a9 9 0 0 1 6 .12 2.86 2.86 0 0 1 1.61 2.77c.08 2.14.04 4.32.04 6.76Zm-3-4.37a6 6 0 0 0-1.83.29 1.6 1.6 0 0 0-.73 1.22 1.34 1.34 0 0 0 1 .86c1.57 0 1.94-.28 1.61-2.37ZM141.86 15v-2a9.64 9.64 0 0 1 5.87 0 2.93 2.93 0 0 1 1.85 2.93c.07 2.17 0 4.35 0 6.51-1.67.39-2.25.25-2.71-.67a3.81 3.81 0 0 1-3.89.82 2.63 2.63 0 0 1-1.98-2.54 2.59 2.59 0 0 1 1.59-2.72 14.23 14.23 0 0 1 2.57-.57c.49-.1 1-.13 1.49-.18 0-1.23-.34-1.72-1.43-1.77a29.57 29.57 0 0 0-3.36.19Zm4.82 3.29a6.63 6.63 0 0 0-1.83.26 1.59 1.59 0 0 0-.82 1.17 1.44 1.44 0 0 0 1.05.92c1.38-.03 1.92-.21 1.6-2.4ZM105 18.43h-5.9a1.66 1.66 0 0 0 1.7 2 34.83 34.83 0 0 0 3.54 0c-.08-.12 0-.09 0-.06.13 2.39.37 2.1-1.88 2.27a12.27 12.27 0 0 1-3.72-.38 3 3 0 0 1-2.34-2.47 12.58 12.58 0 0 1-.11-3.92c.38-2.29 2.07-3.43 4.53-3.38 2.24 0 3.58 1.23 4 3.58.09.72.11 1.47.18 2.36Zm-2.9-1.73c.08-1.54-.45-2.36-1.5-2.36s-1.67.92-1.51 2.36ZM123.79 14.9h-.57c-2 .06-2 .06-2 2.1v.72c0 2.3.19 2.49 2.57 2.51v2.09c-2.72 1.35-5.43-.23-5.43-3.23V15l-1.51-.14v-2.15l1.51-.1c.19-1.11.37-2.21.56-3.37h2.36v3.42h2.57ZM78.14 12.7h2.31l.27 1.1a3.48 3.48 0 0 1 3.48-1.22v2.51c-.76.13-1.53.2-2.26.4a1.2 1.2 0 0 0-1 1.36v5.66h-2.87ZM78.57 31.09c1-.33 1.9-.67 2.84-.93.56-.14.8.19.77.76s0 1.21 0 1.86a8.34 8.34 0 0 0-1 0c-2 .3-2.34.61-2.24 2.29s0 3.32 0 5h-2.82v-9.75h2.24ZM111.68 32.74h-1.18c-1.58.12-2.07.65-2.07 2.22V40h-2.83v-9.62c1.8-.4 2.25-.25 2.51.72.84-.33 1.68-.73 2.55-1 .67-.19 1.12.06 1 .9a16.83 16.83 0 0 0 .02 1.74ZM128.24 22.48h-2.76v-9.75h2.76ZM126.86 11.26c-1.2 0-1.85-.55-1.83-1.55s.69-1.5 1.8-1.51 1.85.6 1.84 1.58-.67 1.47-1.81 1.48Z" transform="translate(.01 -.02)"/></svg>